<?xml version="1.0" encoding="UTF-8" standalone="no"?>
<!DOCTYPE svg PUBLIC "-//W3C//DTD SVG 1.1//EN"
 "http://www.w3.org/Graphics/SVG/1.1/DTD/svg11.dtd">
<!-- Generated by graphviz version 2.40.1 (20161225.0304)
 -->
<!-- Title: %3 Pages: 1 -->
<svg width="2108pt" height="332pt"
 viewBox="0.00 0.00 2108.11 332.00" xmlns="http://www.w3.org/2000/svg" xmlns:xlink="http://www.w3.org/1999/xlink">
<g id="graph0" class="graph" transform="scale(1 1) rotate(0) translate(4 328)">
<title>%3</title>
<polygon fill="#ffffff" stroke="transparent" points="-4,4 -4,-328 2104.1125,-328 2104.1125,4 -4,4"/>
<!-- [root] docker_container.miapache (expand) -->
<g id="node1" class="node">
<title>[root] docker_container.miapache (expand)</title>
<polygon fill="none" stroke="#000000" points="712.7318,-180 498.7318,-180 498.7318,-144 712.7318,-144 712.7318,-180"/>
<text text-anchor="middle" x="605.7318" y="-158.3" font-family="Times,serif" font-size="14.00" fill="#000000">docker_container.miapache</text>
</g>
<!-- [root] docker_image.miapache (expand) -->
<g id="node6" class="node">
<title>[root] docker_image.miapache (expand)</title>
<polygon fill="none" stroke="#000000" points="1137.2318,-108 946.2318,-108 946.2318,-72 1137.2318,-72 1137.2318,-108"/>
<text text-anchor="middle" x="1041.7318" y="-86.3" font-family="Times,serif" font-size="14.00" fill="#000000">docker_image.miapache</text>
</g>
<!-- [root] docker_container.miapache (expand)&#45;&gt;[root] docker_image.miapache (expand) -->
<g id="edge1" class="edge">
<title>[root] docker_container.miapache (expand)&#45;&gt;[root] docker_image.miapache (expand)</title>
<path fill="none" stroke="#000000" d="M713.057,-144.8263C775.4274,-134.7786 855.8111,-121.7144 935.7192,-108.3309"/>
<polygon fill="#000000" stroke="#000000" points="936.6848,-111.7179 945.9681,-106.6121 935.5269,-104.8143 936.6848,-111.7179"/>
</g>
<!-- [root] var.numero_contenedores -->
<g id="node11" class="node">
<title>[root] var.numero_contenedores</title>
<polygon fill="none" stroke="#000000" points="700.7318,-108 504.7318,-108 504.7318,-72 706.7318,-72 706.7318,-102 700.7318,-108"/>
<polyline fill="none" stroke="#000000" points="700.7318,-108 700.7318,-102 "/>
<polyline fill="none" stroke="#000000" points="706.7318,-102 700.7318,-102 "/>
<text text-anchor="middle" x="605.7318" y="-86.3" font-family="Times,serif" font-size="14.00" fill="#000000">var.numero_contenedores</text>
</g>
<!-- [root] docker_container.miapache (expand)&#45;&gt;[root] var.numero_contenedores -->
<g id="edge2" class="edge">
<title>[root] docker_container.miapache (expand)&#45;&gt;[root] var.numero_contenedores</title>
<path fill="none" stroke="#000000" d="M605.7318,-143.8314C605.7318,-136.131 605.7318,-126.9743 605.7318,-118.4166"/>
<polygon fill="#000000" stroke="#000000" points="609.2319,-118.4132 605.7318,-108.4133 602.2319,-118.4133 609.2319,-118.4132"/>
</g>
<!-- [root] docker_container.miapache_mas_personalizado (expand) -->
<g id="node2" class="node">
<title>[root] docker_container.miapache_mas_personalizado (expand)</title>
<polygon fill="none" stroke="#000000" points="1749.2318,-180 1392.2318,-180 1392.2318,-144 1749.2318,-144 1749.2318,-180"/>
<text text-anchor="middle" x="1570.7318" y="-158.3" font-family="Times,serif" font-size="14.00" fill="#000000">docker_container.miapache_mas_personalizado</text>
</g>
<!-- [root] docker_container.miapache_mas_personalizado (expand)&#45;&gt;[root] docker_image.miapache (expand) -->
<g id="edge3" class="edge">
<title>[root] docker_container.miapache_mas_personalizado (expand)&#45;&gt;[root] docker_image.miapache (expand)</title>
<path fill="none" stroke="#000000" d="M1416.4405,-143.9716C1338.6906,-134.4907 1242.7187,-122.1895 1147.3906,-108.0647"/>
<polygon fill="#000000" stroke="#000000" points="1147.6795,-104.5692 1137.2731,-106.5582 1146.6486,-111.4928 1147.6795,-104.5692"/>
</g>
<!-- [root] var.contenedores_mas_personalizados -->
<g id="node8" class="node">
<title>[root] var.contenedores_mas_personalizados</title>
<polygon fill="none" stroke="#000000" points="1764.7318,-108 1480.7318,-108 1480.7318,-72 1770.7318,-72 1770.7318,-102 1764.7318,-108"/>
<polyline fill="none" stroke="#000000" points="1764.7318,-108 1764.7318,-102 "/>
<polyline fill="none" stroke="#000000" points="1770.7318,-102 1764.7318,-102 "/>
<text text-anchor="middle" x="1625.7318" y="-86.3" font-family="Times,serif" font-size="14.00" fill="#000000">var.contenedores_mas_personalizados</text>
</g>
<!-- [root] docker_container.miapache_mas_personalizado (expand)&#45;&gt;[root] var.contenedores_mas_personalizados -->
<g id="edge4" class="edge">
<title>[root] docker_container.miapache_mas_personalizado (expand)&#45;&gt;[root] var.contenedores_mas_personalizados</title>
<path fill="none" stroke="#000000" d="M1584.6107,-143.8314C1590.9454,-135.5386 1598.5702,-125.557 1605.5244,-116.4533"/>
<polygon fill="#000000" stroke="#000000" points="1608.3771,-118.4847 1611.6661,-108.4133 1602.8143,-114.2353 1608.3771,-118.4847"/>
</g>
<!-- [root] docker_container.miapache_mas_personalizado_2 (expand) -->
<g id="node3" class="node">
<title>[root] docker_container.miapache_mas_personalizado_2 (expand)</title>
<polygon fill="none" stroke="#000000" points="1373.7318,-180 999.7318,-180 999.7318,-144 1373.7318,-144 1373.7318,-180"/>
<text text-anchor="middle" x="1186.7318" y="-158.3" font-family="Times,serif" font-size="14.00" fill="#000000">docker_container.miapache_mas_personalizado_2</text>
</g>
<!-- [root] docker_container.miapache_mas_personalizado_2 (expand)&#45;&gt;[root] docker_image.miapache (expand) -->
<g id="edge5" class="edge">
<title>[root] docker_container.miapache_mas_personalizado_2 (expand)&#45;&gt;[root] docker_image.miapache (expand)</title>
<path fill="none" stroke="#000000" d="M1150.1422,-143.8314C1131.0079,-134.3302 1107.4089,-122.6121 1087.1196,-112.5374"/>
<polygon fill="#000000" stroke="#000000" points="1088.5716,-109.3506 1078.0583,-108.038 1085.4583,-115.6203 1088.5716,-109.3506"/>
</g>
<!-- [root] var.contenedores_mas_personalizados_2 -->
<g id="node9" class="node">
<title>[root] var.contenedores_mas_personalizados_2</title>
<polygon fill="none" stroke="#000000" points="1456.2318,-108 1155.2318,-108 1155.2318,-72 1462.2318,-72 1462.2318,-102 1456.2318,-108"/>
<polyline fill="none" stroke="#000000" points="1456.2318,-108 1456.2318,-102 "/>
<polyline fill="none" stroke="#000000" points="1462.2318,-102 1456.2318,-102 "/>
<text text-anchor="middle" x="1308.7318" y="-86.3" font-family="Times,serif" font-size="14.00" fill="#000000">var.contenedores_mas_personalizados_2</text>
</g>
<!-- [root] docker_container.miapache_mas_personalizado_2 (expand)&#45;&gt;[root] var.contenedores_mas_personalizados_2 -->
<g id="edge6" class="edge">
<title>[root] docker_container.miapache_mas_personalizado_2 (expand)&#45;&gt;[root] var.contenedores_mas_personalizados_2</title>
<path fill="none" stroke="#000000" d="M1217.5176,-143.8314C1233.1221,-134.6221 1252.2558,-123.3301 1268.9622,-113.4706"/>
<polygon fill="#000000" stroke="#000000" points="1271.1227,-116.2596 1277.9559,-108.1628 1267.5649,-110.2312 1271.1227,-116.2596"/>
</g>
<!-- [root] docker_container.miapache_personalizado (expand) -->
<g id="node4" class="node">
<title>[root] docker_container.miapache_personalizado (expand)</title>
<polygon fill="none" stroke="#000000" points="2087.7318,-180 1767.7318,-180 1767.7318,-144 2087.7318,-144 2087.7318,-180"/>
<text text-anchor="middle" x="1927.7318" y="-158.3" font-family="Times,serif" font-size="14.00" fill="#000000">docker_container.miapache_personalizado</text>
</g>
<!-- [root] docker_container.miapache_personalizado (expand)&#45;&gt;[root] docker_image.miapache (expand) -->
<g id="edge7" class="edge">
<title>[root] docker_container.miapache_personalizado (expand)&#45;&gt;[root] docker_image.miapache (expand)</title>
<path fill="none" stroke="#000000" d="M1767.6314,-144.7533C1764.6412,-144.4944 1761.6724,-144.243 1758.7318,-144 1490.5016,-121.8389 1419.1584,-138.6453 1147.404,-107.9933"/>
<polygon fill="#000000" stroke="#000000" points="1147.5685,-104.4895 1137.2365,-106.835 1146.7761,-111.4445 1147.5685,-104.4895"/>
</g>
<!-- [root] var.contenedores_personalizados -->
<g id="node10" class="node">
<title>[root] var.contenedores_personalizados</title>
<polygon fill="none" stroke="#000000" points="2048.7318,-108 1800.7318,-108 1800.7318,-72 2054.7318,-72 2054.7318,-102 2048.7318,-108"/>
<polyline fill="none" stroke="#000000" points="2048.7318,-108 2048.7318,-102 "/>
<polyline fill="none" stroke="#000000" points="2054.7318,-102 2048.7318,-102 "/>
<text text-anchor="middle" x="1927.7318" y="-86.3" font-family="Times,serif" font-size="14.00" fill="#000000">var.contenedores_personalizados</text>
</g>
<!-- [root] docker_container.miapache_personalizado (expand)&#45;&gt;[root] var.contenedores_personalizados -->
<g id="edge8" class="edge">
<title>[root] docker_container.miapache_personalizado (expand)&#45;&gt;[root] var.contenedores_personalizados</title>
<path fill="none" stroke="#000000" d="M1927.7318,-143.8314C1927.7318,-136.131 1927.7318,-126.9743 1927.7318,-118.4166"/>
<polygon fill="#000000" stroke="#000000" points="1931.2319,-118.4132 1927.7318,-108.4133 1924.2319,-118.4133 1931.2319,-118.4132"/>
</g>
<!-- [root] docker_container.mibalanceador (expand) -->
<g id="node5" class="node">
<title>[root] docker_container.mibalanceador (expand)</title>
<polygon fill="none" stroke="#000000" points="981.2318,-180 730.2318,-180 730.2318,-144 981.2318,-144 981.2318,-180"/>
<text text-anchor="middle" x="855.7318" y="-158.3" font-family="Times,serif" font-size="14.00" fill="#000000">docker_container.mibalanceador</text>
</g>
<!-- [root] docker_container.mibalanceador (expand)&#45;&gt;[root] docker_image.miapache (expand) -->
<g id="edge9" class="edge">
<title>[root] docker_container.mibalanceador (expand)&#45;&gt;[root] docker_image.miapache (expand)</title>
<path fill="none" stroke="#000000" d="M902.6675,-143.8314C927.8756,-134.0734 959.1245,-121.977 985.611,-111.7242"/>
<polygon fill="#000000" stroke="#000000" points="987.0715,-114.912 995.1337,-108.038 984.5445,-108.384 987.0715,-114.912"/>
</g>
<!-- [root] var.quieres_balanceador -->
<g id="node12" class="node">
<title>[root] var.quieres_balanceador</title>
<polygon fill="none" stroke="#000000" points="922.2318,-108 737.2318,-108 737.2318,-72 928.2318,-72 928.2318,-102 922.2318,-108"/>
<polyline fill="none" stroke="#000000" points="922.2318,-108 922.2318,-102 "/>
<polyline fill="none" stroke="#000000" points="928.2318,-102 922.2318,-102 "/>
<text text-anchor="middle" x="832.7318" y="-86.3" font-family="Times,serif" font-size="14.00" fill="#000000">var.quieres_balanceador</text>
</g>
<!-- [root] docker_container.mibalanceador (expand)&#45;&gt;[root] var.quieres_balanceador -->
<g id="edge10" class="edge">
<title>[root] docker_container.mibalanceador (expand)&#45;&gt;[root] var.quieres_balanceador</title>
<path fill="none" stroke="#000000" d="M849.928,-143.8314C847.4411,-136.0463 844.4787,-126.7729 841.7193,-118.1347"/>
<polygon fill="#000000" stroke="#000000" points="844.9909,-116.874 838.6138,-108.4133 838.3229,-119.0041 844.9909,-116.874"/>
</g>
<!-- [root] provider[&quot;registry.terraform.io/kreuzwerker/docker&quot;] -->
<g id="node7" class="node">
<title>[root] provider[&quot;registry.terraform.io/kreuzwerker/docker&quot;]</title>
<polygon fill="none" stroke="#000000" points="1041.7318,-36 676.0826,-18 1041.7318,0 1407.3811,-18 1041.7318,-36"/>
<text text-anchor="middle" x="1041.7318" y="-14.3" font-family="Times,serif" font-size="14.00" fill="#000000">provider[&quot;registry.terraform.io/kreuzwerker/docker&quot;]</text>
</g>
<!-- [root] docker_image.miapache (expand)&#45;&gt;[root] provider[&quot;registry.terraform.io/kreuzwerker/docker&quot;] -->
<g id="edge11" class="edge">
<title>[root] docker_image.miapache (expand)&#45;&gt;[root] provider[&quot;registry.terraform.io/kreuzwerker/docker&quot;]</title>
<path fill="none" stroke="#000000" d="M1041.7318,-71.8314C1041.7318,-64.131 1041.7318,-54.9743 1041.7318,-46.4166"/>
<polygon fill="#000000" stroke="#000000" points="1045.2319,-46.4132 1041.7318,-36.4133 1038.2319,-46.4133 1045.2319,-46.4132"/>
</g>
<!-- [root] output.direccion_ip_count (expand) -->
<g id="node13" class="node">
<title>[root] output.direccion_ip_count (expand)</title>
<ellipse fill="none" stroke="#000000" cx="204.7318" cy="-234" rx="204.9639" ry="18"/>
<text text-anchor="middle" x="204.7318" y="-230.3" font-family="Times,serif" font-size="14.00" fill="#000000">[root] output.direccion_ip_count (expand)</text>
</g>
<!-- [root] output.direccion_ip_count (expand)&#45;&gt;[root] docker_container.miapache (expand) -->
<g id="edge12" class="edge">
<title>[root] output.direccion_ip_count (expand)&#45;&gt;[root] docker_container.miapache (expand)</title>
<path fill="none" stroke="#000000" d="M295.2241,-217.752C354.5359,-207.1025 432.4497,-193.113 495.3915,-181.8117"/>
<polygon fill="#000000" stroke="#000000" points="496.1355,-185.2342 505.3596,-180.022 494.8984,-178.3444 496.1355,-185.2342"/>
</g>
<!-- [root] output.direccion_ip_count_texto (expand) -->
<g id="node14" class="node">
<title>[root] output.direccion_ip_count_texto (expand)</title>
<ellipse fill="none" stroke="#000000" cx="660.7318" cy="-234" rx="233.1587" ry="18"/>
<text text-anchor="middle" x="660.7318" y="-230.3" font-family="Times,serif" font-size="14.00" fill="#000000">[root] output.direccion_ip_count_texto (expand)</text>
</g>
<!-- [root] output.direccion_ip_count_texto (expand)&#45;&gt;[root] docker_container.miapache (expand) -->
<g id="edge13" class="edge">
<title>[root] output.direccion_ip_count_texto (expand)&#45;&gt;[root] docker_container.miapache (expand)</title>
<path fill="none" stroke="#000000" d="M646.853,-215.8314C640.5183,-207.5386 632.8934,-197.557 625.9392,-188.4533"/>
<polygon fill="#000000" stroke="#000000" points="628.6493,-186.2353 619.7975,-180.4133 623.0866,-190.4847 628.6493,-186.2353"/>
</g>
<!-- [root] output.direccion_ip_for_each (expand) -->
<g id="node15" class="node">
<title>[root] output.direccion_ip_for_each (expand)</title>
<ellipse fill="none" stroke="#000000" cx="1881.7318" cy="-234" rx="218.2613" ry="18"/>
<text text-anchor="middle" x="1881.7318" y="-230.3" font-family="Times,serif" font-size="14.00" fill="#000000">[root] output.direccion_ip_for_each (expand)</text>
</g>
<!-- [root] output.direccion_ip_for_each (expand)&#45;&gt;[root] docker_container.miapache_personalizado (expand) -->
<g id="edge14" class="edge">
<title>[root] output.direccion_ip_for_each (expand)&#45;&gt;[root] docker_container.miapache_personalizado (expand)</title>
<path fill="none" stroke="#000000" d="M1893.3396,-215.8314C1898.5296,-207.7079 1904.755,-197.9637 1910.4743,-189.0118"/>
<polygon fill="#000000" stroke="#000000" points="1913.5333,-190.7246 1915.9678,-180.4133 1907.6344,-186.9559 1913.5333,-190.7246"/>
</g>
<!-- [root] provider[&quot;registry.terraform.io/kreuzwerker/docker&quot;] (close) -->
<g id="node16" class="node">
<title>[root] provider[&quot;registry.terraform.io/kreuzwerker/docker&quot;] (close)</title>
<ellipse fill="none" stroke="#000000" cx="1232.7318" cy="-234" rx="321.143" ry="18"/>
<text text-anchor="middle" x="1232.7318" y="-230.3" font-family="Times,serif" font-size="14.00" fill="#000000">[root] provider[&quot;registry.terraform.io/kreuzwerker/docker&quot;] (close)</text>
</g>
<!-- [root] provider[&quot;registry.terraform.io/kreuzwerker/docker&quot;] (close)&#45;&gt;[root] docker_container.miapache (expand) -->
<g id="edge15" class="edge">
<title>[root] provider[&quot;registry.terraform.io/kreuzwerker/docker&quot;] (close)&#45;&gt;[root] docker_container.miapache (expand)</title>
<path fill="none" stroke="#000000" d="M1066.4622,-218.5941C968.9185,-209.0408 843.0449,-195.8285 722.9456,-180.2621"/>
<polygon fill="#000000" stroke="#000000" points="723.1998,-176.7657 712.8312,-178.9437 722.2949,-183.707 723.1998,-176.7657"/>
</g>
<!-- [root] provider[&quot;registry.terraform.io/kreuzwerker/docker&quot;] (close)&#45;&gt;[root] docker_container.miapache_mas_personalizado (expand) -->
<g id="edge16" class="edge">
<title>[root] provider[&quot;registry.terraform.io/kreuzwerker/docker&quot;] (close)&#45;&gt;[root] docker_container.miapache_mas_personalizado (expand)</title>
<path fill="none" stroke="#000000" d="M1314.5522,-216.5708C1363.2739,-206.1922 1425.3077,-192.9779 1476.1279,-182.1523"/>
<polygon fill="#000000" stroke="#000000" points="1477.0838,-185.5273 1486.1352,-180.0206 1475.6254,-178.6809 1477.0838,-185.5273"/>
</g>
<!-- [root] provider[&quot;registry.terraform.io/kreuzwerker/docker&quot;] (close)&#45;&gt;[root] docker_container.miapache_mas_personalizado_2 (expand) -->
<g id="edge17" class="edge">
<title>[root] provider[&quot;registry.terraform.io/kreuzwerker/docker&quot;] (close)&#45;&gt;[root] docker_container.miapache_mas_personalizado_2 (expand)</title>
<path fill="none" stroke="#000000" d="M1221.1241,-215.8314C1215.9341,-207.7079 1209.7087,-197.9637 1203.9894,-189.0118"/>
<polygon fill="#000000" stroke="#000000" points="1206.8292,-186.9559 1198.4959,-180.4133 1200.9304,-190.7246 1206.8292,-186.9559"/>
</g>
<!-- [root] provider[&quot;registry.terraform.io/kreuzwerker/docker&quot;] (close)&#45;&gt;[root] docker_container.miapache_personalizado (expand) -->
<g id="edge18" class="edge">
<title>[root] provider[&quot;registry.terraform.io/kreuzwerker/docker&quot;] (close)&#45;&gt;[root] docker_container.miapache_personalizado (expand)</title>
<path fill="none" stroke="#000000" d="M1387.8174,-218.2352C1489.9179,-207.8189 1626.8337,-193.7799 1757.4221,-180.1351"/>
<polygon fill="#000000" stroke="#000000" points="1758.0329,-183.5904 1767.6148,-179.0695 1757.3051,-176.6283 1758.0329,-183.5904"/>
</g>
<!-- [root] provider[&quot;registry.terraform.io/kreuzwerker/docker&quot;] (close)&#45;&gt;[root] docker_container.mibalanceador (expand) -->
<g id="edge19" class="edge">
<title>[root] provider[&quot;registry.terraform.io/kreuzwerker/docker&quot;] (close)&#45;&gt;[root] docker_container.mibalanceador (expand)</title>
<path fill="none" stroke="#000000" d="M1141.9512,-216.6626C1087.1753,-206.2014 1017.1829,-192.8341 960.1241,-181.937"/>
<polygon fill="#000000" stroke="#000000" points="960.4715,-178.4401 949.9924,-180.002 959.1583,-185.3159 960.4715,-178.4401"/>
</g>
<!-- [root] root -->
<g id="node17" class="node">
<title>[root] root</title>
<ellipse fill="none" stroke="#000000" cx="946.7318" cy="-306" rx="58.4896" ry="18"/>
<text text-anchor="middle" x="946.7318" y="-302.3" font-family="Times,serif" font-size="14.00" fill="#000000">[root] root</text>
</g>
<!-- [root] root&#45;&gt;[root] output.direccion_ip_count (expand) -->
<g id="edge20" class="edge">
<title>[root] root&#45;&gt;[root] output.direccion_ip_count (expand)</title>
<path fill="none" stroke="#000000" d="M890.6571,-300.5588C777.3951,-289.5684 518.0749,-264.4053 352.7248,-248.3605"/>
<polygon fill="#000000" stroke="#000000" points="352.756,-244.8472 342.4646,-247.3649 352.0798,-251.8144 352.756,-244.8472"/>
</g>
<!-- [root] root&#45;&gt;[root] output.direccion_ip_count_texto (expand) -->
<g id="edge21" class="edge">
<title>[root] root&#45;&gt;[root] output.direccion_ip_count_texto (expand)</title>
<path fill="none" stroke="#000000" d="M901.4143,-294.5914C857.9106,-283.6394 791.3027,-266.871 739.1776,-253.7486"/>
<polygon fill="#000000" stroke="#000000" points="739.8419,-250.3067 729.2899,-251.2594 738.1329,-257.0949 739.8419,-250.3067"/>
</g>
<!-- [root] root&#45;&gt;[root] output.direccion_ip_for_each (expand) -->
<g id="edge22" class="edge">
<title>[root] root&#45;&gt;[root] output.direccion_ip_for_each (expand)</title>
<path fill="none" stroke="#000000" d="M1003.8128,-301.6045C1141.7816,-290.9801 1497.7338,-263.5699 1711.6386,-247.0981"/>
<polygon fill="#000000" stroke="#000000" points="1712.014,-250.5796 1721.7157,-246.3221 1711.4765,-243.6003 1712.014,-250.5796"/>
</g>
<!-- [root] root&#45;&gt;[root] provider[&quot;registry.terraform.io/kreuzwerker/docker&quot;] (close) -->
<g id="edge23" class="edge">
<title>[root] root&#45;&gt;[root] provider[&quot;registry.terraform.io/kreuzwerker/docker&quot;] (close)</title>
<path fill="none" stroke="#000000" d="M992.0494,-294.5914C1035.1831,-283.7325 1101.0299,-267.1557 1152.9532,-254.0841"/>
<polygon fill="#000000" stroke="#000000" points="1153.9662,-257.4384 1162.8091,-251.6029 1152.2572,-250.6502 1153.9662,-257.4384"/>
</g>
</g>
</svg>
